<svg xmlns="http://www.w3.org/2000/svg" id="Layer_2" width="400" height="450" data-name="Layer 2" version="1.1">
  <defs id="defs1">
    <style id="style1">.cls-1,.cls-2,.cls-3,.cls-4,.cls-5,.cls-6,.cls-7,.cls-8{stroke-width:0}.cls-1,.cls-5,.cls-7,.cls-8{fill-rule:evenodd}.cls-1,.cls-6{fill:#ffcb05}.cls-2,.cls-8{fill:#191d5e}.cls-3,.cls-7{fill:#bb2127}.cls-4,.cls-5{fill:#ffcc06}</style>
  </defs>
  <g id="Escudo_minimalista_2024" data-name="Escudo minimalista 2024" transform="matrix(1, 0, 0, 1, 9.005284, 19.001499)">
    <path id="path1" d="M378.51 50.62C320.31 15.84 254.53-.18 189.95 0 125.37-.18 59.58 15.84 1.38 50.62.39 65.7-.06 80.27 0 94.37c-.37 148.71 61.1 258.54 189.02 330.28.3.18.59.36.89.54.01 0 .02-.01.03-.02.01 0 .02.01.03.02.3-.18.59-.36.89-.54 127.92-71.74 189.39-181.57 189.02-330.28.06-14.1-.39-28.67-1.37-43.75" class="cls-3" style="fill:#bb2127;stroke-width:0"></path>
    <path id="path2" d="M189.95 405.57C73.24 337.32 16.66 235.45 17.01 94.41v-.12c-.05-10.89.22-22.14.81-33.54C68.87 32.11 127.8 17.01 188.85 17.01h2.19c61.05 0 119.97 15.1 171.03 43.74.59 11.4.86 22.65.81 33.54v.12c.35 141.04-56.23 242.91-172.93 311.17z" class="cls-2" style="fill:#191d5e;stroke-width:0"></path>
    <g id="MINAS_GERAIS" data-name="MINAS GERAIS">
      <path id="GERAIS" d="m215.09 362.94-2.97-3.55 7.79-6.04 7.02 8.4c-.04 1.45-.5 3.06-1.39 4.84-.89 1.77-2.07 3.22-3.54 4.36-1.87 1.45-3.89 2.26-6.05 2.41-2.17.15-4.32-.36-6.46-1.54-2.14-1.18-4.05-2.78-5.74-4.8-1.83-2.2-3.08-4.45-3.72-6.76-.64-2.31-.59-4.51.16-6.58.56-1.59 1.7-3.05 3.41-4.37 2.22-1.72 4.42-2.52 6.58-2.39 2.17.13 4.24 1.02 6.22 2.69l-2.93 3.57c-1.12-.84-2.28-1.29-3.47-1.35-1.2-.06-2.31.31-3.36 1.12-1.58 1.22-2.34 2.79-2.29 4.69.05 1.91 1.05 4.01 2.99 6.33 2.09 2.5 4.13 4.01 6.12 4.53 1.99.52 3.75.18 5.28-1 .76-.59 1.37-1.35 1.84-2.29s.77-1.87.9-2.79l-2.23-2.67-4.14 3.21zm16.32.65-18.68-21.13 13.23-10.87 3.16 3.58-9.63 7.91 4.14 4.68 8.96-7.36 3.14 3.56-8.96 7.36 5.08 5.75 9.97-8.19 3.15 3.56-13.57 11.15zm15.01-12.47-19.19-20.83 7.37-6.87c1.85-1.73 3.37-2.79 4.54-3.21 1.18-.42 2.45-.39 3.82.07 1.38.47 2.62 1.3 3.73 2.51 1.41 1.53 2.2 3.15 2.37 4.86.16 1.7-.4 3.4-1.69 5.08 1.24-.18 2.4-.2 3.46-.03 1.07.16 2.75.65 5.05 1.45l6.1 2.08-3.96 3.97-7.16-2.23c-2.37-.75-3.91-1.17-4.62-1.28-.71-.1-1.32-.06-1.84.13-.51.19-1.17.66-1.97 1.41l-.71.66 8.19 8.96-3.5 3.26zm-7.71-15.48 2.58-2.41c1.68-1.57 2.65-2.62 2.92-3.18.26-.55.32-1.15.18-1.78-.14-.63-.49-1.25-1.06-1.86-.64-.69-1.31-1.09-2.01-1.23-.7-.13-1.39.01-2.06.43-.32.22-1.19.99-2.61 2.32l-2.73 2.54zm39.41-17.01-3.2 3.74-6.41-2.84-6.19 6.63 3.75 5.94-3.35 3.5-15.25-25.11 3.27-3.59 27.38 11.74zm-13.68-.65-9.97-4.52 5.75 9.05 4.23-4.53zm14.23 0-22.21-17.66 2.91-3.53 22.2 17.66zm-4.3-10.43 2.51-3.62c1.54 1 2.9 1.48 4.07 1.44 1.17-.04 2.21-.57 3.12-1.59.96-1.08 1.4-2.15 1.31-3.2-.08-1.05-.5-1.91-1.26-2.57-.49-.43-1.01-.68-1.56-.75-.55-.07-1.21.07-1.97.42-.52.24-1.62.88-3.3 1.9-2.15 1.32-3.96 1.98-5.41 2-2.04.03-3.89-.68-5.52-2.11a8.412 8.412 0 0 1-2.32-3.31 6.462 6.462 0 0 1-.25-3.91c.33-1.32 1.06-2.63 2.19-3.9 1.86-2.09 3.82-3.17 5.9-3.23 2.08-.05 4.09.72 6.03 2.33l-2.8 3.52c-1.19-.79-2.23-1.15-3.11-1.08-.89.06-1.75.57-2.59 1.52-.87.98-1.31 1.96-1.29 2.95 0 .64.27 1.19.81 1.66.49.43 1.06.63 1.7.6.82-.03 2.2-.66 4.13-1.88 1.93-1.21 3.51-1.99 4.71-2.33 1.21-.33 2.45-.33 3.74 0 1.28.34 2.58 1.08 3.88 2.22a9.538 9.538 0 0 1 2.62 3.71c.56 1.44.67 2.86.31 4.27-.35 1.41-1.18 2.84-2.46 4.29-1.87 2.11-3.91 3.19-6.12 3.26-2.21.07-4.57-.8-7.08-2.61" class="cls-4" style="fill:#ffcc06;stroke-width:0"></path>
      <path id="MINAS" d="m88.42 301.53 22.66-16.88 3.27 4.3-5.23 10.68 12.02-2.46 3.45 4.59-22.75 16.95-2.7-3.26 18.06-13.46-14.83 3.21 6.57-13.68-18.01 13.42-2.5-3.41zm18.33 22.84 21.64-18.25 3.04 3.4-21.64 18.25zm7.79 8.49 20.73-19.44 3.13 3.16-7.05 19.3 13.57-12.72 3.12 2.89-20.82 19.52-3.23-3.26 7.2-19.24-13.7 12.85-2.95-3.05zm34.07 30.96-3.84-3.09 2.97-6.29-6.81-5.98-6.24 3.72-3.62-3.23 26.05-14.85 3.68 3.09-12.19 26.62zm1.3-13.84 4.67-9.63-9.32 5.55zm7.95 9.12 3.87 2.27c-.93 1.58-1.34 2.95-1.22 4.11.12 1.15.72 2.15 1.83 2.99 1.17.89 2.29 1.26 3.36 1.12 1.07-.14 1.92-.6 2.56-1.39.41-.51.63-1.04.66-1.58.04-.55-.14-1.19-.56-1.92-.28-.5-1-1.55-2.15-3.14-1.49-2.05-2.28-3.8-2.39-5.23-.16-2.02.45-3.88 1.81-5.58a8.44 8.44 0 0 1 3.25-2.48c1.28-.56 2.61-.71 3.99-.47 1.38.25 2.75.89 4.14 1.94 2.26 1.72 3.48 3.59 3.67 5.64.19 2.05-.48 4.08-2.01 6.1l-3.78-2.57c.73-1.22 1.04-2.27.91-3.14-.12-.87-.69-1.7-1.72-2.47-1.06-.8-2.09-1.18-3.1-1.11-.65.04-1.2.34-1.65.89-.41.51-.58 1.08-.51 1.71.09.81.81 2.13 2.18 3.97 1.36 1.84 2.26 3.35 2.68 4.52.42 1.18.49 2.4.23 3.69-.27 1.29-.94 2.61-2.03 3.96a9.514 9.514 0 0 1-3.64 2.8c-1.44.64-2.89.83-4.35.55-1.47-.27-2.98-1-4.54-2.19-2.27-1.73-3.52-3.68-3.72-5.86-.21-2.18.53-4.56 2.23-7.14" class="cls-4" style="fill:#ffcc06;stroke-width:0"></path>
    </g>
    <g id="POLICIA_MILITAR" data-name="POLICIA MILITAR">
      <path id="path3" d="M335 68.13c-.04 3.96-.07 5.93-.11 9.88 8.69 6.06 8.81-8.81.11-9.88m8.08 38.57s-3.45-13.18-6.78-19.35c-.39-.54-.94-.8-1.5-1.1l-.19 16.37-7.31-3.28V56.16s6.69 2.88 12.17 5.58c3.01 1.48 6.17 4.23 7.43 6.4 2.73 4.77 3.49 15.34-2.68 18.55-.81.5-2.09-.13-1.03 1.13 3.87 7.67 8.13 23.16 8.13 23.16l-8.23-4.27zm-31.49-32.04c-1.05-5.47-1.58-8.21-2.63-13.7-1.16 4.64-1.74 6.97-2.9 11.6zm3.51 19.67-1.88-10c-3.54-1.37-8.86-3.42-8.86-3.42l-2.12 8.77-8.15-2.65 11.1-39.51 8.37 3.06 9.79 47.09-8.24-3.33zm-24.46-42.61-.33 34.15-7.67-2.18.32-34.13-8.58-2.45.08-8.73 24.85 7.12-.09 8.66zM262.75 78.9l-.01-43.19 7.7 1.71V80.6Zm-20.2-3.61V32.12l7.75 1.23v34.86l8.5 1.29v8.59zm-11.72-1.53-.01-43.17 7.79.95v43.19Zm-11.78-1.27V47.51l-6.92 15.61-6.39-16.76-.01 25.29-7.85-.2-.01-43.04 9.28.29 5.45 14.02 5.88-13.31 8.36.82-.03 43.09zm-49.29-18.11c-1.13-5.13-1.7-7.7-2.83-12.85-1.19 5.32-1.79 7.98-2.98 13.29 2.32-.17 3.48-.26 5.81-.44m3.75 17.48s-1.25-5.66-2.04-9.21c-3.69.28-5.54.42-9.23.69-.81 3.68-2.05 9.34-2.05 9.34l-8.24.77 10.8-44.13s5.43-.31 8.75-.57c3.44 13.97 10.5 42.84 10.5 42.84l-8.5.27zm-33.38 3.04s-.06-29.34 0-43.18c2.91-.36 4.98-.68 7.89-1.04-.07 13.85 0 43.21 0 43.21zm-26.74-25.89c.15-7.2 5.71-14.28 13.03-15.07 7.95-.85 10.53 5.7 9.58 12.62l-5.86.35c.02-2.37-.22-3.34-.92-4.15-2.19-2.51-7.19-.73-8.19 4.74-.7 3.84-.63 9.9-.04 17.71.37 4.95 5.13 5.11 7.55 3.14 1.62-1.32 1.45-3.9 1.53-6.35 2.42-.26 6.05-.64 6.05-.64s.53 6.62-1.02 9.78c-2.63 5.34-7.16 5.79-10.95 6.18-4.22.43-9.05-1.23-10.12-7.24-1-5.63-.65-21.06-.65-21.06zM80.83 88.62V45.43l7.78-2.45v33.58l9.08-2.87v9.87zm-14.99-3.35c4.28-.64 4.21-8.33 4.23-12.52.02-2.47.2-7.36-1.17-10.12-1.03-2.07-3.15-3.07-5.71-.19-1.97 2.22-2.65 6.67-2.6 11.02.04 3 .36 12.64 5.26 11.8m-9.26 3.85c-3.32-5.24-3.15-18.66-2.35-23.49 1.06-6.33 4.43-13.49 11.11-14.49 1.83-.27 3.68-.06 5 .77 7.77 4.93 7 18.49 5.81 27.47-.71 5.4-1.51 8.65-5.83 12.19-3.7 3.03-9.59 4.05-13.73-2.45M36.23 72.17v11.24c.57-.3.85-.46 1.42-.76 1.51-.81 2.64-1.91 3.39-3.3.76-1.41 1.15-3.13 1.15-5.16 0-1.89-.32-3.08-.97-3.57-.58-.43-1.55-.28-2.91.45-.83.44-1.24.67-2.07 1.11zm-.02 19.49v15.33l-7.37 3.82V67.63c.13-.07 7-3.66 9.86-5.14 2.15-1.12 3.97-1.72 5.51-1.71.89 0 1.69.19 2.39.57.69.38 1.27.93 1.75 1.67 1.02 1.59 1.53 4.06 1.53 7.39a23.92 23.92 0 0 1-3.02 11.68c-1 1.82-2.18 3.42-3.52 4.78-1.34 1.37-2.86 2.5-4.55 3.41zm65.42-38.94v29.8l7.83-1.92V43.49Zm7.83-15.3-7.83 1.89v7.36z" class="cls-1" style="fill:#ffcb05;fill-rule:evenodd;stroke-width:0"></path>
    </g>
    <path id="TRIANGULO" d="m99.12 245.59 45.34-83.4L189.8 78.8l45.34 83.39 45.34 83.4z" class="cls-7" style="fill:#bb2127;fill-rule:evenodd;stroke-width:0"></path>
    <path id="path4" d="M90.83 132.06c14.79-10.76 15.32-28.79 9.38-44.25-12.96 11.98-20.8 28.64-9.38 44.25m-13.57 34.01c7.52-16.67-.94-32.6-13.76-43.09-5.33 16.82-3.9 35.18 13.76 43.09m20.15-18.35c17.02 6.7 32.51-2.53 42.37-15.84-17.06-4.5-35.32-2.18-42.37 15.84m-11.05 34.85c17.91 3.72 31.61-8 39.07-22.79-17.58-1.55-35.18 3.84-39.07 22.79m-12.55 19.89c2.4-18.13-10.3-30.94-25.6-37.29-.25 17.64 6.42 34.8 25.6 37.29m7.27 34.23c-4.22-17.8-20.65-25.24-37.2-25.73 6.05 16.58 18.39 30.24 37.2 25.73m19.3 33.68c-7.49-16.69-25.02-20.92-41.37-18.28 9.05 15.15 23.74 26.25 41.37 18.28m-12.21-54.15c18.28-.6 28.84-15.22 32.6-31.35-17.45 2.64-33.29 12.02-32.6 31.35m56.11 69.3c1.56-18.22-11.71-30.44-27.28-36.08.56 17.64 8 34.47 27.28 36.08" class="cls-1" style="fill:#ffcb05;fill-rule:evenodd;stroke-width:0"></path>
    <path id="path5" d="M121.38 118.02a4.11 4.11 0 1 0 0 8.22c2.27 0 4.1-1.84 4.1-4.11 0-2.27-1.84-4.11-4.1-4.11M84.59 132.8a4.11 4.11 0 1 0 0 8.22c2.27 0 4.1-1.84 4.1-4.11 0-2.27-1.84-4.11-4.1-4.11m13.15 19.37a4.11 4.11 0 1 0 0 8.22c2.27 0 4.1-1.84 4.1-4.11 0-2.27-1.84-4.11-4.1-4.11m-7.95 34.7a4.11 4.11 0 1 0 0 8.22c2.27 0 4.1-1.84 4.1-4.11 0-2.27-1.84-4.11-4.1-4.11m5.98 36.12a4.11 4.11 0 1 0 0 8.22c2.27 0 4.1-1.84 4.1-4.11 0-2.27-1.84-4.11-4.1-4.11m13.28 26.45a4.11 4.11 0 1 0 0 8.22c2.27 0 4.1-1.84 4.1-4.11 0-2.27-1.84-4.11-4.1-4.11m-28.73-8.59a4.11 4.11 0 1 0 0 8.22c2.27 0 4.1-1.84 4.1-4.11 0-2.27-1.84-4.11-4.1-4.11m-9.88-34.96a4.11 4.11 0 1 0 0 8.22c2.27 0 4.1-1.84 4.1-4.11 0-2.27-1.84-4.11-4.1-4.11m1.43-37.85a4.11 4.11 0 1 0 0 8.22c2.27 0 4.1-1.84 4.1-4.11 0-2.27-1.84-4.11-4.1-4.11" class="cls-7" style="fill:#bb2127;fill-rule:evenodd;stroke-width:0"></path>
    <path id="path6" d="M81.9 195c0 45.71 28.58 84.87 68.81 100.55-.9 1.18-1.66 2.35-2.33 3.49-41.32-16.48-70.59-56.92-70.59-104.04 0-33.95 15.2-64.42 39.14-84.98 4.64-14.45 18.33-19.7 32.94-19.63 1.7 0 3.46.08 5.17.23-.48.94-.97 1.87-1.49 2.79-7.26 12.72-19.36 22.43-34.85 20.53-22.55 19.78-36.81 48.78-36.81 81.07z" class="cls-1" style="fill:#ffcb05;fill-rule:evenodd;stroke-width:0"></path>
    <g id="TIRADENTES">
      <path id="path7" d="M151.26 215.22c0 .24 0 .47-.02.72 0 .09 0 .16-.02.25 0 .11 0 .24-.02.37 0 .09 0 .18-.02.27 0 .25-.03.5-.07.76-.02.17-.04.35-.07.53-.02.16-.04.31-.07.48-.18 1.3-.44 2.69-.77 4.13-.02.06-.02.11-.04.17 0 .07-.02.14-.05.2-.18.83-.39 1.69-.62 2.55-.02.12-.06.23-.08.34-.03.11-.06.21-.08.31-.51 1.9-1.07 3.83-1.66 5.7-.04.14-.08.27-.12.4-.02.07-.04.16-.07.23-.02.09-.05.17-.08.26v.03c-.02.06-.03.12-.06.18-.47 1.49-.95 2.93-1.41 4.27-.02.08-.05.16-.07.24-.02.07-.06.16-.08.23-.37 1.06-.72 2.04-1.04 2.95-.03.09-.07.17-.09.26-.04.1-.07.2-.12.3-.72 2-1.31 3.51-1.59 4.23h-14.79c.67-6.69 7.39-17.02 13.11-24.72.02-.02.03-.05.06-.07a.61.61 0 0 1 .12-.16l.07-.1s0-.02.02-.02c.07-.11.15-.2.22-.31 3.9-5.21 7.22-9.08 7.62-9.54.02-.03.04-.05.04-.05.15.04.29.11.42.18.03.02.06.04.09.07.11.07.22.15.31.26.12.1.22.23.31.38.28.43.48 1.01.59 1.69.03.18.06.38.08.57.02.24.04.48.05.74v.11z" class="cls-2" style="fill:#191d5e;stroke-width:0"></path>
      <path id="path8" d="M151.71 215.26v.15c0 .27 0 .52-.02.79 0 .1 0 .2-.02.3 0 .09 0 .18-.02.27-.02.42-.07.85-.12 1.27 0 .15-.02.29-.04.43s-.04.28-.07.42c-.19 1.34-.47 2.66-.77 3.97-.02.05-.02.1-.03.15-.02.06-.03.12-.05.18-.07.29-.13.6-.21.89-.12.54-.27 1.08-.4 1.62-.02.1-.05.2-.08.31-.02.08-.04.17-.07.26-.48 1.84-1.01 3.67-1.59 5.49-.04.15-.08.29-.13.43l-.12.42c-.02.07-.05.15-.07.21-.02.08-.06.16-.07.24-.12.38-.25.76-.37 1.14-.34 1.04-.68 2.07-1.04 3.1-.02.08-.06.17-.08.25-.02.07-.05.15-.08.22-.34 1.01-.69 2.01-1.06 3.02-.02.08-.05.17-.09.25-.02.11-.07.2-.11.31-.5 1.38-1.01 2.85-1.55 4.21h-.97c.1-.22.17-.64.24-.82.2-.53.41-1.06.61-1.6.24-.63.47-1.26.7-1.9.04-.11.08-.21.12-.32.04-.1.07-.2.11-.29.36-.97.71-1.95 1.05-2.93.02-.07.05-.15.07-.23.02-.08.05-.15.08-.24.47-1.35.92-2.72 1.35-4.09.03-.08.06-.15.08-.24.02-.06.04-.12.05-.18.03-.07.05-.13.07-.2.02-.07.02-.05.02-.07.03-.11.07-.22.11-.33.02-.07.04-.12.06-.19.6-1.92 1.19-3.86 1.71-5.82.03-.12.07-.24.1-.36.03-.13.07-.24.09-.37.21-.81.41-1.62.59-2.42.02-.07.03-.15.05-.23.02-.07.03-.14.05-.21.29-1.31.54-2.64.73-3.97l.06-.44c.03-.2.06-.41.08-.61.03-.24.07-.5.08-.74 0-.07.02-.14.02-.2v-.1s.02-.07 0-.1c.02-.08.02-.17.02-.25 0-.11.02-.24.02-.35v-.24c.02-.17.02-.33.02-.51 0-.21 0-.42-.02-.64-.02-.22-.02-.42-.05-.64l-.02-.27c-.05-.44-.17-1.11-.4-1.69-.07-.18-.15-.34-.24-.49-.07-.13-.17-.24-.26-.34-.03-.02-.06-.06-.09-.08-.85.98-1.68 1.98-2.5 2.99-1.74 2.13-3.44 4.28-5.08 6.48-.08.1-.16.2-.22.29-.02 0-.03.02-.03.03-.02.02-.04.06-.06.08-.04.05-.07.1-.11.15-.03.03-.06.07-.08.11-1.95 2.62-3.83 5.3-5.61 8.04-1.89 2.93-3.68 5.95-5.14 9.1-1.07 2.32-2.22 4.9-2.5 7.45h-1.34c.88-3.36 2.16-6.15 3.51-8.9 2.79-5.66 6.42-10.95 10.23-16.02 0 0 0-.02.02-.02.03-.06.07-.11.12-.15.02-.05.06-.09.1-.13.04-.07.08-.12.12-.17.04-.06.08-.11.12-.17.2-.27.4-.53.6-.79 1.35-1.78 2.72-3.54 4.13-5.27.95-1.17 1.91-2.32 2.9-3.47.07-.07.28 0 .47.08.03 0 .07.02.1.04.16.05.31.11.44.19.12.06.24.13.35.21.12.09.24.19.35.29.39.4.64.9.79 1.44.06.17.1.34.13.51.03.2.07.42.08.63.02.1.02.2.03.31 0 .2.02.38.02.58v.49z" class="cls-2" style="fill:#191d5e;stroke-width:0"></path>
      <path id="path9" d="M143.16 221.05c.86.47 1.36 1.11 1.61 1.87.26-.27.53-.54.8-.83 3.15-3.41 5.63-7.5 8.7-11 2.53-2.89 5.17-4.85 7.21-8.15 0-.05 0-.1-.02-.16-.25-2.5-1.95-1.75-3.58-.95-8.18 3.91-13.63 10.96-18.65 18.27.98.07 1.82.21 2.52.41.55.15 1.02.33 1.41.55z" class="cls-3" style="fill:#bb2127;stroke-width:0"></path>
      <path id="path10" d="M138.76 220.8c1.44-.04 4.94.45 5.02 2.53 0 .17 0 .39-.04.63.33-.33.67-.68 1.02-1.04-.25-.76-.76-1.4-1.61-1.87-.39-.23-.86-.41-1.41-.55-.7-.2-1.53-.34-2.52-.41 5.01-7.3 10.46-14.35 18.65-18.27 1.63-.8 3.33-1.54 3.58.95 0 .05.01.1.02.16.03-.05.07-.09.1-.15.12-.21.27-.37.41-.54-1.07-2.55-3.76-2.61-5.94-.59-3.58 2.07-7.39 4.19-17.9 18.11-.16.22-.21 1.06.62 1.04" class="cls-2" style="fill:#191d5e;stroke-width:0"></path>
      <path id="path11" d="m150.41 209.38-.47 1.55-6.78 10.12c-.19-.12-.71-.38-1.41-.55.44-.81 4.84-7.82 6.73-9.7.44-.42 1.93-1.42 1.93-1.42" class="cls-4" style="fill:#ffcc06;stroke-width:0"></path>
      <path id="path12" d="m253.34 227.38-.15 1.25-.04.33-.03.33v.04l-1.11 9.35-.42 3.52c-.02.17-.03.35-.06.52l-1.41.77-.91.5-.83.45-.76.41-.22.12-1.15.62h-87.82c.78-2.18 1.66-4.22 2.46-6.11.03-.07.06-.15.09-.21.03-.09.07-.16.1-.24.19-.44.37-.87.57-1.3.03-.09.08-.2.13-.29.05-.14.11-.27.17-.41.19-.43.38-.85.57-1.26.05-.11.11-.23.17-.34l.16-.33c.37-.78.75-1.52 1.11-2.24 0-.02.02-.03.03-.06.2-.38.4-.77.59-1.14.07-.12.13-.23.18-.34.04-.08.09-.15.13-.22.1-.2.21-.39.31-.58.07-.13.14-.26.22-.38.05-.1.1-.2.17-.29 1.11-1.98 2.19-3.7 3.19-5.18.04-.07.09-.13.13-.19.17-.26.35-.51.51-.75.17-.23.33-.45.49-.67 3.41-4.69 5.82-6.54 5.82-6.54l9.4-3.1.37-.12.26-.09.38-.13 3.38-1.11.32-.1.32-.1 18.44-6.08.92-.3.59-.7 1.07-1.54 2.47 2.87.4.18-.87 1 29.14 14.66.57.28.56.28 4.14 2.08.49.26h.02l.47.25h.02l2.81 1.41.26.13.3.15 1.33.67z" class="cls-2" style="fill:#191d5e;stroke-width:0"></path>
      <path id="path13" d="M212.74 207.39c.13.07.25.13.38.2 9.5 4.78 19.02 9.56 28.51 14.34.18.09.37.19.55.27.17.09.36.18.53.27.41.2.81.41 1.22.61.97.5 1.92.98 2.9 1.48h.03c.17.08.34.16.5.25.17.09.33.16.5.25.74.38 1.48.74 2.22 1.12.13.06.25.13.39.19.09.04.18.09.28.13.1.05.21.1.31.15.62.29 1.24.58 1.8.93-.05.3-.07.61-.1.91 0 .07-.02.14-.03.2 0 .11-.03.21-.03.32-.02.12-.03.25-.04.37l-.33 2.79-.66 5.5c-.09.79-.18 1.57-.28 2.36-.04.34-.08.67-.12 1.02-.06.52-.12 1.06-.19 1.58-.33.19-.63.36-.92.53-.33.2-.64.38-.91.55-.34.2-.64.4-.91.58-.3.2-.53.37-.71.51-.09.07-.16.12-.21.17-.29.26-.23.33.27.12.19-.09.45-.2.78-.38.21-.11.45-.24.73-.38.02-.02.04-.03.07-.04.26-.15.55-.28.83-.42.47-.23.95-.46 1.37-.74.08-.04.15-.09.22-.15.62-.46.48-1.82.57-2.51.03-.21.05-.44.08-.65l1.05-8.88c.07-.55.13-1.09.2-1.64 0-.13.03-.26.04-.38.02-.11.03-.23.04-.34.04-.43.1-.84.15-1.27v-.06c0-.06-.06-.11-.11-.14-.21-.1-.41-.2-.62-.32l-.31-.15c-.1-.05-.19-.09-.29-.15-1.02-.51-2.03-1.02-3.05-1.53-.17-.09-.32-.16-.49-.25l-.49-.26h-.02c-1.37-.68-2.74-1.37-4.11-2.07-.19-.09-.39-.2-.58-.29-.19-.1-.38-.2-.57-.29-3.57-1.79-7.14-3.59-10.7-5.39-4.98-2.5-9.96-5.01-14.94-7.51-1.37-.69-2.73-1.37-4.1-2.07m-3.12-1.58c-.11-.04.57-1.27.53-1.27-.23-.03-1.5 1.14-1.76 1.21-.38.11-.77.29-1.07.39-1.86.61-3.73 1.23-5.6 1.84-4.1 1.35-8.19 2.7-12.29 4.05-.11.03-.22.07-.33.1-.07.03-.15.05-.22.08-.03 0-.07.02-.1.03-.13.04-.28.09-.42.13l-.14.05c-.96.32-1.91.63-2.86.95-.02 0-.03 0-.04.02-.19.06-.37.12-.57.18-.02 0-.04.02-.06.03-2.05.67-4.1 1.35-6.14 2.02-1.14.38-2.37.67-3.47 1.14-1.26.54-2.34 2.04-3.22 3.02-.94 1.06-1.83 2.17-2.67 3.3-.13.17-.25.34-.37.51-.17.22-.33.45-.49.67-.88 1.25-1.71 2.53-2.5 3.82-.38.63-.77 1.27-1.12 1.92-.05.08-.1.15-.14.24-.07.1-.12.2-.17.32-.15.25-.29.5-.43.75-.05.1-.11.2-.16.3-.04.09-.09.17-.13.26-.06.11-.12.21-.18.32-.26.49-.51.98-.77 1.48-.35.68-.69 1.36-1.01 2.05-.06.14-.12.27-.19.41-.08.16-.16.32-.23.5-.17.35-.32.7-.48 1.06-.06.11-.1.22-.15.33-.04.09-.08.17-.11.26-.08.16-.15.32-.22.48-.03.05-.05.12-.09.18-.04.1-.09.2-.13.29-.04.09-.09.2-.12.29-.03.08-.07.16-.1.24-.03.07-.06.15-.09.21-.87 2.03-1.67 4.1-2.42 6.17h.66c.7-2.06 1.48-3.99 2.43-6.08.03-.08.06-.15.1-.22.03-.08.07-.15.1-.23.1-.21.2-.43.3-.65.11-.24.23-.47.34-.72.05-.11.1-.22.17-.34.08-.16.16-.32.23-.49.19-.4.39-.8.61-1.22.04-.1.1-.2.15-.3.04-.09.09-.18.13-.27.39-.79.82-1.62 1.27-2.49.17-.32.33-.63.5-.94.05-.1.1-.2.17-.31.03-.07.07-.13.1-.2 0-.02.02-.03.02-.04.09-.15.17-.3.25-.45.06-.13.13-.25.2-.38.7-1.27 1.44-2.53 2.22-3.76 0 0 0-.02.02-.03.36-.57.73-1.14 1.11-1.7.19-.29.38-.57.58-.85.04-.07.09-.13.13-.19 1.13-1.6 2.34-3.12 3.65-4.57.71-.79 1.47-1.52 2.25-2.24.08-.08.23-.16.28-.2h.02c.23-.09.46-.15.7-.22 2.73-.9 5.46-1.8 8.18-2.7.21-.07.42-.14.63-.2.06-.03.11-.04.17-.06.15-.05.29-.09.44-.15.45-.15.91-.3 1.36-.44h.03c.69-.23 1.38-.45 2.06-.68.11-.03.22-.07.33-.1.1-.04.22-.08.32-.11.37-.12.74-.25 1.11-.37 5.37-1.78 10.73-3.54 16.1-5.31.25-.09.52-.16.78-.25.3-.09.61-.19.9-.3.06-.03.11-.04.17-.07 0 0 .02 0 .04-.02.08 0 .25-.05.26-.08-.05.18-.17.15-.25.09m-.04-.04" class="cls-2" style="fill:#191d5e;stroke-width:0"></path>
      <path id="path14" d="M235.65 226.86s-12.85 6.83-14.78 18.73h2.75s.61-9.86 12.03-18.73" class="cls-2" style="fill:#191d5e;stroke-width:0"></path>
      <path id="path15" d="M177.92 206.84c-2.26 3.64-4.26 6.97-6.03 10.02-.7 1.79-1.56 3.41-2.67 4.71-1.83 3.33-3.37 6.29-4.65 8.86l.47.16c-1.73 2.26-2.88 10-4.87 9.71-1.42 3.66-1.73 5.29-1.73 5.29h-21.51c.44-.95 5.08-19.67 13.09-31.41 3.03-4.44 6.1-7.03 8.73-9.95.08-.08.16-.18.23-.25l15.2 2.24c-.02.1-.02.19-.04.29z" class="cls-4" style="fill:#ffcc06;stroke-width:0"></path>
      <path id="path16" d="M160.17 206.21c-2.56-.74-2.68-2.1-1.61-4.47.58-1.49 1.97-.67 3.24-.31 7.72 2.21 15.44-1.07 23.18-1.21.64-.01-2.3-.05-1.73.26 2.18.47 1.32 2.71.29 3.6-4.87 4.24-15.6 4.36-23.38 2.13z" class="cls-2" style="fill:#191d5e;stroke-width:0"></path>
      <path id="path17" d="M217.37 157c.08 3.26-1.73 6.57-2.43 9.57-.69 3.01-4.93 5.16-5.68 8.32-1 4.14-5.32 5.97-4.43 8.78.89 2.79.89 3.37.79 4.62-.17 2.14-2.37 4.01-.44 7.36 1.56 2.72 3.72 4.91 5.16 6.22-2.35-1.96-6.72-5.68-8.21-7.53.39-6.26-3.7-4.3-3.72-4.8 0 0 .02-8.65.27-11.52.63-7.22 1.52-7.99.79-10.77-.75-2.79-3.78-4.45-3.78-4.45s-1.66 5.14-3.49 6.61c-1.29 1.02-6.11.27-9.03-.08-.5-.06-.64-.73-.19-.96 4.45-2.45 6.55-8.8 6.45-13.18-.02-1.89-2.25-5.18-3.72-9.71-1.21-3.76-1.7-8.28-1.81-9.73 12.87 3.72 30.48 14.43 31.84 14.43.29 0 .62 0 .96-.04.48 1.81.6 4.6.65 6.84z" class="cls-8" style="fill:#191d5e;fill-rule:evenodd;stroke-width:0"></path>
      <path id="path18" d="M201.7 191.17s1.4.44 2.57 1.63 6.02 7.22 6.49 7.74c.47.52 2.17 1.71 1.3 2.95l1.98 2.53" style="fill:none;stroke:#2b398b;stroke-width:.71px;stroke-miterlimit:10"></path>
      <path id="path19" d="M259.76 235.68c-.14 3.29-.74 6.62-.86 9.91h-25.01c.04-.61.04-1.23-.05-1.84-.04-.31-.1-.62-.06-.94.04-.26.14-.52.21-.78.12-.39.18-.8.24-1.2.44-2.99.46-6.03.09-9.03-.13-.96-.29-1.93-.2-2.89v-.17c.07-.7.27-1.37.66-1.87.06-.09.14-.17.22-.24.08-.09.16-.15.25-.2.28-.2.63-.32 1.06-.35 2.02-.15 4.12 0 6.15.06 2.63.07 5.26.19 7.88.36l.99.06 1.09.09c.78.06 1.56.12 2.33.19.52.05 1.06.1 1.51.35.16.09.31.2.43.32.11.09.19.2.27.31.09.13.17.26.25.4.31.6.5 1.31.81 1.91.34.64.83 1.19 1.17 1.84.59 1.14.61 2.45.55 3.72z" class="cls-4" style="fill:#ffcc06;stroke-width:0"></path>
      <path id="path20" d="M260.27 234.92c0 1.85-.24 3.7-.44 5.54-.19 1.71-.37 3.42-.42 5.13h-.99c.04-1.02.12-2.04.22-3.06.17-1.68.39-3.36.53-5.05.13-1.47.31-3.05-.08-4.5-.36-1.38-1.42-2.48-1.95-3.82-.1-.25-.19-.5-.31-.73a2.71 2.71 0 0 0-.47-.71c-.03-.04-.06-.08-.1-.11-.02-.02-.03-.03-.05-.04-.18-.18-.39-.31-.62-.39-.44-.19-.94-.24-1.45-.28-.46-.04-.92-.08-1.38-.11l-1.1-.09c-.33-.03-.65-.05-.98-.07-2.64-.19-5.27-.31-7.91-.38-1.82-.05-3.64-.17-5.46-.13-.75 0-1.39.11-1.86.53-.07.06-.14.13-.21.21-.06.08-.12.15-.16.25-.04.04-.06.09-.08.13-.24.47-.34 1-.4 1.52-.12 1.9.35 3.82.44 5.72.03.73.04 1.45 0 2.17-.02 1.12-.09 2.23-.23 3.34v.09c-.1.78-.28 1.51-.45 2.29-.18.76.02 1.5.04 2.27 0 .32 0 .64-.03.96h-.97c.04-.9-.2-1.84-.1-2.71.06-.67.34-1.31.44-1.99.3-2.01.41-4.05.33-6.08-.07-1.97-.56-3.95-.44-5.92.1-.84.34-1.69.95-2.24.08-.08.17-.15.27-.2.09-.06.19-.12.3-.16.1-.05.2-.09.31-.12 1.43-.45 3.2-.26 4.69-.21 3.31.1 6.62.21 9.92.42.34 0 .67.03 1.01.06.35.02.71.04 1.06.07.94.07 1.89.14 2.83.22.65.06 1.33.09 1.89.45a2.352 2.352 0 0 1 .46.39c.11.11.2.24.29.38.47.74.66 1.71 1.11 2.44.43.73.98 1.37 1.25 2.17.26.77.31 1.59.31 2.39z" class="cls-2" style="fill:#191d5e;stroke-width:0"></path>
      <path id="path21" d="M241.47 245.59h-.72c0-.45.06-.9.18-1.37.26-1.02.24-1.81.05-2.83-.22-1.08-.1-2.06.05-3.13.31-2.31-.17-4.34-.79-6.57-.25-.9-.43-1.84-.37-2.74 0-.1.02-.2.03-.3 0-.09.02-.18.04-.26.1-.55.28-1.08.61-1.58.06-.09.82.47.69.66-.22.35-.38.7-.48 1.06-.03.09-.05.17-.06.26-.03.09-.05.19-.05.28-.25 1.55.34 3.17.76 4.71.55 1.99.49 3.85.24 5.87-.15 1.16.11 2.13.25 3.27.11.95-.26 1.77-.41 2.69zm-5.23 0h-.72c.04-.43.12-.85.27-1.31.33-.97.36-1.72.22-2.7-.15-1.03.03-1.96.24-2.99.45-2.2.09-4.14-.39-6.26-.2-.86-.31-1.75-.2-2.61.02-.1.03-.19.05-.28.01-.08.03-.17.05-.25.13-.52.35-1.03.7-1.51.07-.09 1.07.16.93.34-.24.33-.71.96-.83 1.3-.03.08-.06.16-.08.24-.03.09-.06.18-.07.27-.35 1.48.14 3.02.47 4.49.43 1.9.25 3.67-.12 5.6-.22 1.11-.02 2.03.05 3.12.05.9-.37 1.68-.57 2.56zm10.51 0h-.92c-.05-.59-.16-1.17-.32-1.74-.28-.97-.76-1.85-.82-2.88-.04-.96.16-1.94.32-2.9.21-1.2.41-2.44.2-3.63-.17-.92-.62-1.7-1.04-2.52-.43-.84-.69-1.7-.67-2.56 0-.1 0-.2.01-.3 0-.08.02-.15.04-.22.09-.57.31-1.15.69-1.74.16-.26 1.05.08.92.26-.35.53-.56 1.03-.65 1.53-.01.08-.03.15-.04.22-.02.1-.02.2-.02.3-.07 1.14.42 2.23 1 3.36.91 1.79.82 3.55.47 5.56-.2 1.24-.48 2.51-.18 3.72.24.96.7 1.83.89 2.81.04.25.08.49.1.73zm4.79 0h-1c0-.87.26-2.01.4-2.87.19-1.08.1-2.08-.21-3.12-.61-2.04-1.38-3.9-1.51-6.05-.08-1.37.03-2.73.32-4.07.01-.11.04-.21.07-.32.01-.09.04-.18.07-.27.07-.33.16-.67.27-.99.1-.31 1.05-.44.95-.13-.11.35-.21.7-.3 1.06-.03.1-.05.2-.08.31-.02.1-.04.2-.07.32-.32 1.56-.41 3.16-.21 4.75.25 2.06 1.2 3.87 1.62 5.86.41 1.87-.61 3.7-.33 5.52zm4.25 0c.15-2.53.76-5.11.35-7.63-.33-2.06-1.34-3.64-2.37-5.43-.59-1.02-.92-2.09-.95-3.19v-.37c0-.11 0-.22.02-.33.03-.42.1-.84.22-1.26.1-.33 1.04-.09.95.25-.09.3-.14.59-.18.88-.02.11-.03.23-.04.34v.39c0 1.52.62 2.88 1.51 4.3.97 1.54 1.62 3.1 1.86 4.87.32 2.37-.24 4.8-.4 7.18h-.96z" class="cls-2" style="fill:#191d5e;stroke-width:0"></path>
      <path id="path22" d="M217.65 204.81s29.43 16.04 32.7 17.79c3.27 1.75 2.29 1.86 2.29 1.86l-14.79.29s-14.81-7.8-21.02-12.2c-6.21-4.4-4.5-10.64.82-7.74" class="cls-4" style="fill:#ffcc06;stroke-width:0"></path>
      <path id="path23" d="M251.34 222.77c-5.5-3.12-11.13-6.04-16.68-9.06-5.46-2.97-10.91-5.99-16.39-8.93-.1-.05-.19-.11-.29-.16-1.41-.74-3.35-1.32-4.67-.23-1.28 1.05-1.01 2.99-.35 4.38 1.03 2.19 3.01 3.65 4.99 4.95 1.98 1.31 4.02 2.53 6.07 3.73 3.84 2.25 7.74 4.4 11.66 6.5.63.34 1.41.94 2.12 1.07.79.14 1.74-.03 2.53-.04l10.59-.21c.56-.01 1.46.14 2-.08 1.16-.48-1.29-1.76-1.58-1.92m.26 1.43c-.61.01-1.22.02-1.83.04-1.71.03-3.42.07-5.14.1l-4.77.09-1.54.03c-.07 0-.19-.02-.28 0-.57-.44-1.44-.73-2.05-1.06-1.63-.88-3.26-1.77-4.89-2.67-3.97-2.2-7.93-4.43-11.75-6.89-1.97-1.27-4.03-2.59-5.22-4.66-.75-1.3-1.45-3.77.22-4.63.93-.48 2.09 0 2.97.46 4.08 2.22 8.16 4.45 12.24 6.67 6.04 3.29 12.07 6.58 18.11 9.85l2.16 1.17c.8.43 1.53.97 2.3 1.42.01 0 .02.02.03.03-.21.01-.43.05-.58.05z" class="cls-2" style="fill:#191d5e;stroke-width:0"></path>
      <path id="path24" d="M257.37 225.39c.35 2.37-2.06 3.72-9.13 3.72s-13.07-.79-14.51-4.29c-.94-2.27 2.41-4.29 9.48-4.29s13.82 2.5 14.17 4.87z" class="cls-4" style="fill:#ffcc06;stroke-width:0"></path>
      <path id="path25" d="M256.89 225.25c.34 2.68-3.09 3.08-4.77 3.28-4.11.5-8.74.46-13.02-.53-1.44-.33-3.22-.82-4.34-2.17-.78-.95-.9-1.95-.22-2.74.9-1.04 2.41-1.46 3.7-1.73 2.17-.47 4.48-.56 6.77-.44 2.5.13 5.05.53 7.55 1.37 1.17.4 3.98 1.24 4.32 2.95.08.42 1.06.74.97.28-.28-1.39-1.78-2.28-2.83-2.83-2.2-1.16-4.58-1.73-6.86-2.11-2.79-.46-5.6-.56-8.3-.28-1.9.19-3.97.53-5.53 1.62-.77.54-1.5 1.41-1.13 2.62.42 1.4 1.73 2.41 2.86 3.01 1.95 1.04 4.1 1.39 6.12 1.62 2.77.32 5.55.37 8.27.26 2.2-.09 7.89-.1 7.41-3.91-.05-.41-1.03-.76-.97-.28z" class="cls-2" style="fill:#191d5e;stroke-width:0"></path>
      <path id="path26" d="M199.47 167.27c.73 2.77-.15 3.54-.79 10.77-.23 2.62-.27 10.07-.27 11.35-6.92 6.92-19.38 9.9-26.18 9.9-3.99 0-7.03.06-10.9-1.19l-.94-.48.46-1.06c.54-1.87.52-5.1.08-5.99l-.29-.62c-2.81-.69-9.52.29-11.08-2.33-1.68-2.83-.69-6.16.42-9.77.06-.17-.75-1.16-.73-2.85.02-.92.5-1.58 1.04-2.18.19-.23-.92-1.91-.71-2.6.6-1.87 1.1-5.51 1.16-6.07-1.21-.5-1.98-1.33-2.18-2.58-.19-1.29.64-2.08 1.96-3.64.66-.77 2.35-3.7 2.64-4.7.6-2-.98-3.64-.29-7.24.5-2.66 3.47-7.65 4.99-10.21.04.02.08.04.12.04h.02c1.25.21 2.56.25 3.93.17.23-.02.48-.02.73-.06.37-.02.73-.06 1.1-.1.21-.02.42-.06.66-.08.35-.06.71-.1 1.08-.15 1.17-.17 2.37-.35 3.58-.54 1.16-.17 2.31-.35 3.49-.46.58-.08 1.18-.12 1.75-.15h.13c.79-.06 1.56-.06 2.31 0 .19.04.37.04.56.06.21 0 .42.04.66.04 1.77.17 3.78.6 5.91 1.23h.02c.12 1.44.6 5.97 1.81 9.73 1.46 4.53 3.7 7.82 3.72 9.71.1 4.37-2 10.73-6.45 13.18-.44.23-.31.91.19.96 2.93.35 7.74 1.1 9.03.08 1.83-1.46 3.49-6.61 3.49-6.61s3.02 1.66 3.78 4.45z" class="cls-5" style="fill:#ffcc06;fill-rule:evenodd;stroke-width:0"></path>
      <path id="path27" d="M187.91 179.69c-6.75 8.47-10.93 7.76-13.06 8.3-2.12.53-12.75 1.14-19.02 1.19-6.28.06-7.01-2.99-7-5.69.02-2.72 1.52-4.41 2.25-4.82.73-.4 2.95 0 2.95 0s.62-1.21-1.66-1.39c-3.4-.28-2.86-2.35-2.86-2.35s-.02-1.81 2.86-1.48c3.41.41 7.49 1.94 7.49 1.94s2.53 2.16 2.78 1.78c.59-.89-2.26-2.92-2.52-3.38-.27-.46-6.14-2.72-7.03-2.78-.89-.05-1.05.59-2.5.38-1.46-.21-.62-1.24-.48-1.87.14-.62 1.11-4.92 1.31-4.92.2 0 6.3 0 7.13-.35.59-.24.86-.71.98-.98-.03-.14.07-.2.07-.2s-.02.08-.07.2c.01.12.1.28.41.5 2.14 1.5 2.14 3.4 2.49 3.47.35.07.62-.91 0-2.64-.97-2.7-4.09-4.56-4.3-4.22-.21.35.69 1.04.55 2.21-.14 1.18-.71.97-4.96 1.04-4.24.07-4.68-.77-4.88-2.35-.12-.9 2.07-3.33 2.84-4.44.76-1.09 1.65-3.53 2.73-5.19.01-.03.03-.06.05-.08.44-.66 1.03-1.3 1.58-1.9.84-.91 1.61-1.68 1.74-2.18.21-.83.54-3.3-.35-3.47-.43-.08.08.35-.89.97s-3.05-.35-3.05-.35c.46-1.14 3.43-6.86 4.47-8.83h-.01c-.14-.02-.3-.09-.5-.21-1.35 2.35-4.9 9.12-4.9 9.12s-.32-.1-.75.65c-.33.59.01 1.54.67 1.83-.17.81.07 2.5.09 2.94.06 1.06.18 2.11.36 3.16-.71 1.26-1.72 2.92-2.09 3.69-.54 1.13-2.96 2.74-2.96 4.47 0 1.73 2.42 3.07 2.42 3.07-.48 3.23-1.56 5.97-1.45 6.66.12.7.86 1.67.86 1.67-1.23 1.07-.81 3.55-.48 4.41.32.85.54.97-.41 3.65-.96 2.69-.38 5.99 1.01 7.53 1.67 1.83 6.18 1.51 8.28 1.51 2.1 0 2.16.81 2.48 1.72.32.92-.5 3.85-.5 5.16 0 1.21 3.05 1.56 3.05 1.56s-1.33-2.85-.16-4.66c1.3-2.03 11.72-2.05 14.6-3.26 4.86-2.04 9.54-8.79 10.4-9.97.86-1.19 3.08-4.79-.09-.82zm-35.1-32.41c.12.01.23.01.36-.02 1.67-.41 2.45.23 2.45.23s.96.36.74.9c-1.26-.95-3.22.1-3.37.32.13-.18-.05-.91-.18-1.43" class="cls-2" style="fill:#191d5e;stroke-width:0"></path>
      <path id="path28" d="M154.44 151.65s.03-.06.05-.08c.44-.66 1.03-1.3 1.58-1.9m2.27-14.53-.35.67h-.01c-.14-.02-.3-.09-.5-.21.24-.41.4-.7.47-.77.43-.48.38.31.38.31zm1.28 27.93s-.02.08-.07.2c-.03-.14.07-.2.07-.2m20.51-14.64c.05.51-.41.2-.98 0-.56-.21-3.49-2.31-6.63-2.26-3.15.05-4.52-.05-4.78.3-.5.62 3.84.63 7.04 3.94 1.9 1.97-1.71-1.18-5.5-2.14-2.01-.51-1.12.15-.16.52.93.36 3.33 2.36 3.7 3.34.21.53-2.05-1.46-2.77-1.89-.28-.17-.56-.35-.85-.52.21.35.32.75.32 1.19 0 .86-.46 1.61-1.16 2.01 1.15-.15 2.03-.37 2.12-.12.14.32-1.9.81-3.26.76-1.36-.06-3.4-.52-3.27-.92.08-.24.98.14 2.16.3-.71-.39-1.2-1.15-1.2-2.03 0-.7.32-1.34.82-1.76-.95.27-2.13.97-3.54 2.84-.6.81-.51-.45-.13-.91.37-.46.45-4.33.1-4.6-.35-.27-1.39-2.09-1-2.78.21-.37 1.49 1.34 2.87 1.39 1.39.05 5.09-1.82 8.69-1.39 3.61.41 7.35 4.22 7.41 4.74z" class="cls-2" style="fill:#191d5e;stroke-width:0"></path>
      <path id="path29" d="M194.52 170.58c3.97 2.47 8.57-3.09 5.47-6.56-.2-.22-.51 1.63-.75 2.77-.24 1.13-.62 2.34-1.67 2.97-1.15.7-3.05.82-3.05.82" class="cls-8" style="fill:#191d5e;fill-rule:evenodd;stroke-width:0"></path>
      <path id="path30" d="M168.59 149.86c.37 0 .66.31.66.68 0 .37-.3.68-.66.68-.36 0-.66-.31-.66-.68 0-.37.3-.68.66-.68" class="cls-5" style="fill:#ffcc06;fill-rule:evenodd;stroke-width:0"></path>
      <g id="Colar">
        <path id="path31" d="M160.03 196.52s-.87 1.24 2.22 1.62c10.17 1.25 27.44-.95 35.66-7.74 2.7-2.23 4.22 1.05 4.22 2.7 0 1.09-.02 3.75-2.16 4.76-1.61.77-2.77-.95-3.72-.46-.81.41.37 2.92-1.81 3.77-2.51.97-2.99-1.67-4.18-1.26-1.08.36-.03 2.8-2.71 3.32-2.94.56-2.87-1.75-4.01-1.51-1.15.24-.59 2.68-3.17 3.12-2.16.37-2.38-2.24-3.39-2.14-1.19.12-1.05 2.86-3.39 2.86-2.14 0-2.27-2.5-3.39-2.5-.91 0-.57 2.3-2.98 2.36-2.62.07-1.72-2.48-2.71-2.54-.7-.05-.67 2.51-2.82 2.16-1.98-.32-1.66-2.29-2.5-2.66-.93-.41-.73 2.5-2.58 1.29-3.44-2.24 1.12-7.22 3.43-7.15z" class="cls-4" style="fill:#ffcc06;stroke-width:0"></path>
        <path id="path32" d="M200.76 189.74c-2.17-1.41-3.97 1.19-5.74 2.15-5.04 3.06-11 4.57-16.78 5.45-5.58.69-11.46 1.38-17.02.3-1.38-.12-.27-1.27-1.45-1.46-4.04.06-7.2 6.4-2.55 8.08 1.4.38 1.26-1.2 2.03-1.48.61 1.25 1.21 2.64 2.92 2.65 1.41.11 1.81-1.2 2.45-2.14.22 2.2 2.9 3.35 4.57 1.84.35-.34.83-1.84 1.37-1.63 1.04 1.43 2.49 3.24 4.49 2.12 1.01-.27 1.41-3.17 2.47-2.26 1.17 2.34 4.3 2.49 5.39 0 .29-.62.62-1.73 1.37-.99 2.06 2.37 5.55 1.49 5.9-1.71.83-1.43 2.14 2.09 4.57.86 1.57-.56 1.42-2.2 1.63-3.53.32-.61 1.07-.11 1.52.08 4.67 1.84 6.15-6.17 2.86-8.32zm.68 5.63c-1.91 4.49-3.99.86-5.62 1.79-.52.45-.29 1.53-.41 2.13-.26 1.28-1.77 2.22-3.01 1.56-.83-.45-2.36-2.35-3.03-.58-.2 2.37-2.77 3.7-4.56 1.92-.38-.39-.52-.84-1.12-.8-.69.04-1.13.92-1.37 1.46-.47 1.08-1.32 1.75-2.63 1.68-1.1-.05-1.34-1.24-2.08-1.83-1.51-1.2-2.05 1.26-2.87 2.01-1.05 1.01-2.6.46-3.17-.78-.35-.5-.79-1.13-1.46-1.19-.65-.06-.84.52-1.1 1-.43 1.12-2.04 1.8-3.07 1.12-.47-.4-.82-3.17-2.06-2.13-.61.51-.57 1.46-1.37 1.86-2.43 1.09-2.01-2.8-3.91-2.55-.58.22-.55 1.11-1.04 1.44-3.65.28-1.54-6.57 2.09-6.54 1.48 2.62 6.14 1.64 8.74 1.9 8.35-.06 16.87-1.37 24.52-4.83 2.38-.86 4.24-2.86 6.45-3.91 2.69-.76 2.54 3.8 2.09 5.28z" class="cls-2" style="fill:#191d5e;stroke-width:0"></path>
      </g>
      <path id="Chapeu" d="M235.4 143.28c-.13.13-.27.25-.37.35-3.12 2.95-13.54 6.11-18.32 6.53-.35.04-.67.04-.96.04-1.37 0-18.98-10.71-31.84-14.43h-.02c-2.14-.64-4.14-1.06-5.91-1.23-.23 0-.44-.04-.66-.04-.19-.02-.37-.02-.56-.06-.75-.06-1.52-.06-2.31 0h-.13c-.58.04-1.17.08-1.75.15-1.18.12-2.33.29-3.49.46-1.26.2-2.5.38-3.72.55.05 0 .09 0 .14-.01-.37.06-.73.1-1.08.15-.23.02-.44.06-.66.08-.37.04-.73.08-1.1.1-.25.04-.5.04-.73.06-1.37.08-2.68.04-3.93-.17h-.02c-.13-.02-.29-.1-.48-.21-.02 0-.02-.02-.04-.02-.15-.1-.33-.21-.52-.39-.04-.02-.06-.04-.1-.1-.08-.04-.15-.1-.23-.17-.1-.1-.21-.21-.35-.31-3.29-3.12-9.57-11.58-13.47-17.01l.23-.23c11.23-6.95 23.58-10.71 35.75-11.08 6.88-.23 13.74.64 20.27 2.6 1.85.54 3.62 1.18 5.41 1.89 18.71 7.53 28.12 24.31 30.92 32.44 0 0 .02.04.02.06z" class="cls-2" style="fill:#191d5e;stroke-width:0"></path>
      <path id="path33" d="M238.25 140.04c-3.14-16.26-21.94-35.61-50.48-39.38-26.74-3.53-47.53 12.75-47.74 12.91 0 0-.26-.28-.32-.4-.1-.19-.15-.59.18-.84 3.44-2.53 23.17-16.02 48.02-12.74 27.48 3.63 46.05 21.51 50.68 37.5.19.67.26.87.4 1.53.05.24-.42 1.37-.73 1.68.01-.17 0-.26 0-.26z" class="cls-2" style="fill:#191d5e;stroke-width:0"></path>
      <path id="path34" d="M238.25 140.05c-3.14-16.26-21.94-35.62-50.47-39.39-26.74-3.53-47.54 12.75-47.76 12.93l-.06-.06c.04.13.1.27.19.39l2.6 3.66.04.04.23-.23c11.23-6.95 23.58-10.71 35.75-11.08 6.88-.23 13.74.64 20.27 2.6 1.85.54 3.62 1.18 5.41 1.89 18.71 7.53 28.12 24.31 30.92 32.44 0 0 .01.04.02.06.57-.48 2.28-2.01 2.86-2.97 0-.05-.01-.27-.01-.27zm-24.92 62.5c0 2.72-4.99 7.55-8.88 12.05-1.54 1.77-2.99 3.45-4.01 4.79-1.63 2.14-3.8 6.32-5.55 9.69-2.42 4.66-2.63 4.94-3.13 4.94s-.96-.18-1.35-.49c-1.88-1.56-5.1-3.34-8.37-4.64l-.14-.07c-1.49-.57-2.91-1.03-4.17-1.35-1.84-.49-3.46-.73-4.83-.73-1.68 0-2.9.36-3.64 1.06-3.35 3.55-7.29 13.94-8.68 17.8h-3.92c.52-1.61 5.43-16.08 15.22-30.66 4.77-7.09 9.31-11.78 14.72-15.22 1.81-1.16 3.8-2.14 5.72-3.08 3.1-1.52 6.03-2.96 8.19-5.05.35-.34.75-.84.63-1.32-.11-.45-.6-.73-.72-.76a.503.503 0 0 1-.34-.61.49.49 0 0 1 .48-.38c.04 0 .08.01.11.02 1.6.37 2.5 1.31 3.37 2.23.24.25.48.5.74.74.08.07 8.56 8.63 8.55 11.04" class="cls-3" style="fill:#bb2127;stroke-width:0"></path>
      <path id="path35" d="M205.11 191.14c-.25-.23-.48-.47-.72-.72-.88-.92-1.87-1.96-3.61-2.37a.97.97 0 0 0-.23-.03 1.003 1.003 0 0 0-.3 1.96c.11.05.36.24.39.43.04.18-.14.49-.48.82-2.11 2.03-5.01 3.46-8.07 4.96-1.93.95-3.93 1.93-5.77 3.1-5.47 3.49-10.06 8.23-14.86 15.37-10.35 15.41-15.3 30.8-15.34 30.94h1.05c.72-2.16 5.58-16.18 15.12-30.38 4-5.96 8.51-11.23 14.56-15.08 4.66-2.96 10.38-4.7 14-8.19 1.74-1.68.16-2.79-.3-2.93 1.88.44 2.73 1.79 3.87 2.85.63.58 8.45 8.27 8.4 10.66-.07 3.59-8.48 10.38-12.78 16.55-2.8 4.02-7.7 14.44-8.29 14.44-.37 0-.74-.14-1.03-.38-1.92-1.58-5.18-3.39-8.51-4.72l-.1-.05c-1.48-.57-2.93-1.05-4.27-1.39-1.87-.49-3.53-.74-4.95-.74-1.81 0-3.15.4-3.99 1.2-3.65 3.87-7.89 15.44-8.86 18.16h1.06c2.35-6.54 5.84-14.61 8.51-17.45.65-.6 1.75-.91 3.28-.91 1.33 0 2.91.24 4.7.71 1.24.31 2.62.76 4.12 1.34l.05.03s.05.02.08.03c3.24 1.29 6.4 3.04 8.25 4.56.47.39 1.06.61 1.66.61.85 0 1.1-.44 3.58-5.22 1.73-3.34 4-7.42 5.5-9.61 3.07-4.47 12.85-12.99 12.98-17.11.11-3.31-8.62-11.36-8.7-11.44" class="cls-2" style="fill:#191d5e;stroke-width:0"></path>
      <path id="path36" d="m190.61 214.33-8.27 14.13c-1.48-.6-3.11-1.15-4.65-1.53l8.14-13.79 3.95-1.62.82 2.81z" class="cls-4" style="fill:#ffcc06;stroke-width:0"></path>
    </g>
    <path id="path37" d="M288.65 132.06c-14.79-10.76-15.32-28.79-9.38-44.25 12.96 11.98 20.8 28.64 9.38 44.25m13.56 34.01c-7.52-16.67.94-32.6 13.76-43.09 5.33 16.82 3.9 35.18-13.76 43.09m-20.15-18.35c-17.02 6.7-32.51-2.53-42.37-15.84 17.06-4.5 35.32-2.18 42.37 15.84m11.06 34.85c-17.91 3.72-31.61-8-39.07-22.79 17.58-1.55 35.18 3.84 39.07 22.79m12.55 19.89c-2.4-18.13 10.3-30.94 25.6-37.29.25 17.64-6.42 34.8-25.6 37.29m-7.28 34.23c4.22-17.8 20.65-25.24 37.2-25.73-6.05 16.58-18.39 30.24-37.2 25.73m-19.29 33.68c7.49-16.69 25.02-20.92 41.37-18.28-9.05 15.15-23.74 26.25-41.37 18.28m12.21-54.15c-18.28-.6-28.84-15.22-32.6-31.35 17.45 2.64 33.29 12.02 32.6 31.35m-56.11 69.3c-1.56-18.22 11.71-30.44 27.28-36.08-.56 17.64-8 34.47-27.28 36.08" class="cls-1" style="fill:#ffcb05;fill-rule:evenodd;stroke-width:0"></path>
    <path id="path38" d="M258.1 118.02a4.11 4.11 0 1 1 0 8.22c-2.27 0-4.1-1.84-4.1-4.11 0-2.27 1.84-4.11 4.1-4.11m36.79 14.78a4.11 4.11 0 1 1 0 8.22c-2.27 0-4.1-1.84-4.1-4.11 0-2.27 1.84-4.11 4.1-4.11m-13.16 19.37a4.11 4.11 0 1 1 0 8.22c-2.27 0-4.1-1.84-4.1-4.11 0-2.27 1.84-4.11 4.1-4.11m7.96 34.7a4.11 4.11 0 1 1 0 8.22c-2.27 0-4.1-1.84-4.1-4.11 0-2.27 1.84-4.11 4.1-4.11m-5.98 36.12a4.11 4.11 0 1 1 0 8.22c-2.27 0-4.1-1.84-4.1-4.11 0-2.27 1.84-4.11 4.1-4.11m-13.28 26.45a4.11 4.11 0 1 1 0 8.22c-2.27 0-4.1-1.84-4.1-4.11 0-2.27 1.84-4.11 4.1-4.11m28.72-8.59a4.11 4.11 0 1 1 0 8.22c-2.27 0-4.1-1.84-4.1-4.11 0-2.27 1.84-4.11 4.1-4.11m9.89-34.96a4.11 4.11 0 1 1 0 8.22c-2.27 0-4.1-1.84-4.1-4.11 0-2.27 1.84-4.11 4.1-4.11m-1.43-37.85a4.11 4.11 0 1 1 0 8.22c-2.27 0-4.1-1.84-4.1-4.11 0-2.27 1.84-4.11 4.1-4.11" class="cls-7" style="fill:#bb2127;fill-rule:evenodd;stroke-width:0"></path>
    <path id="path39" d="M297.57 195c0 45.71-28.58 84.87-68.81 100.55.9 1.18 1.66 2.35 2.33 3.49 41.32-16.48 70.59-56.92 70.59-104.04 0-33.95-15.2-64.42-39.14-84.98-4.64-14.45-18.33-19.7-32.94-19.63-1.7 0-3.46.08-5.17.23.48.94.97 1.87 1.49 2.79 7.26 12.72 19.36 22.43 34.85 20.53 22.55 19.78 36.81 48.78 36.81 81.07z" class="cls-1" style="fill:#ffcb05;fill-rule:evenodd;stroke-width:0"></path>
    <g id="GARRUCHAS">
      <g id="Garrucha_Direita" data-name="Garrucha Direita">
        <path id="path40" d="m179.69 284.29 9.05 3.63-4.11 1.64-.37-.82c-.59-1.29-2.11-1.89-3.48-1.37l-5.74 2.16-.78-3.18 5.42-2.06zm35-6.76-14.49 5.8-8.99-3.41 22.06-8.37s2.25.61 1.42 5.98m-51.16 13.06c.21.2.43.36.67.49-.84.6-2.97 2.23-3.9 3.82-1.22 2.08-.4 4.57 1.17 4.83 0 0-6.14 5.89-3.76 10.19 0 0-.98 2.7-.97 4.01 0 0-1.19.67-1.58.57 0 0-.53-3.91.11-6.78.74-3.3 1.18-4.14 1.7-5.05.67-1.13-.61-1.6-1.2-.98-.37.39-2.52 2.59-3.6 5.55-1.08 2.94-1.63 6.66-1.63 6.66s-.98-.28-1.38-.98c0 0 .32-13.03 14.36-22.34zm10.52-.62-1.18.5c-1.05-1.5-2.24-2.01-3.58-1.86-.02-.02-.04-.05-.06-.07-.24-.25-.46-.47-.63-.69 2.72-1.29 4.58-1.66 4.58-1.66l.86 3.78z" class="cls-6" style="fill:#ffcb05;stroke-width:0"></path>
        <path id="path41" d="M156.04 302.54s-2.97 4.83-1.69 13.18c0 0 1.09.37 2.58-.77 0 0 .2 1.23.14 2.89-.06 1.66-.69 4.64-4.18 4.68-3.49.04-4.55-2.59-4.59-4.77-.04-2.17.27-3.53.27-3.53s1.36 1.15 2.62 1.25c0 0 1.48-10.17 4.86-12.92zm6.48-2.13s1.75-.01 2.99-.51c0 0-2.56 2.12-.59 3.96 1.97 1.84 4.11.85 4.8-.04.84-1.09 1.35-2.99.18-5.58l1.59-.55s2.11 5.83-1.74 8.07c-2.87 1.67-5.33.46-7.13-1.72 0 0-2.14 0-4.24 4.76 0 0-.86-3.93 4.14-8.38z" class="cls-6" style="fill:#ffcb05;stroke-width:0"></path>
        <path id="path42" d="M167.42 299.66s-1.59.99-1.63 1.56c-.04.57 1.1 1.74 1.47 1.8.37.06 1.26-.1 1.26-.1s-1.68-1.65-1.1-3.26M211.7 271l-2.59.98.1-1.53 2.38.32zm-28.24 18.42c-.52-1.06-1.95-1.33-3-.91l-8.05 3.21s-1-1.72-2.31-2.11c1.54 1.48 1.36 3.84 1.36 3.84s.09 2.76-2.42 3.32c-2.41.54-3.61-.9-3.92-2.01-.33-1.2-.04-2.61.08-3.41-2.77 1.89-5.35 4.81-4.51 6.58 1.12 2.39 4.6 1.15 4.6 1.15l16.67-6.73c.54-.2 2.28-1.37 1.5-2.95z" class="cls-6" style="fill:#ffcb05;stroke-width:0"></path>
        <path id="path43" d="M170.78 293.55c0-3.7-2.7-4.49-3.2-6.15-.33-1.44.38-2.97 1.16-3.61.75-.62.39-1.31-.2-1.4-1.27-.07-4.43 2.96-5.14 4.49-.8 1.7.31 3.81 2.41 3.94.49.24-.21 2.22-.04 3.1.35 3.05 5.01 2.85 5.01-.37m-2.63 1.45c-1.78-.12-1.57-2.75.21-2.58 1.8.12 1.59 2.75-.21 2.58" class="cls-6" style="fill:#ffcb05;stroke-width:0"></path>
      </g>
      <g id="Garrucha_Direita-2" data-name="Garrucha Direita">
        <path id="path44" d="m195.25 289.56.37-.82c.59-1.29 2.11-1.89 3.47-1.38l5.74 2.15.78-3.17-39-14.8s-2.24.61-1.42 5.98l30.05 12.03zm20.67.75c14.47 9.33 14.81 22.62 14.81 22.62-.4.7-1.38.97-1.38.97s-.56-3.71-1.63-6.65c-1.08-2.96-3.24-5.16-3.6-5.55-.58-.62-1.87-.15-1.2.98.53.9.96 1.74 1.7 5.04.65 2.87.12 6.78.12 6.78-.4.1-1.59-.57-1.59-.57 0-1.3-.97-4-.97-4 2.38-4.31-3.76-10.19-3.76-10.19 1.56-.26 2.39-2.75 1.17-4.83-1.17-2-4.25-4.07-4.25-4.07-3.48-2.35-6.18-3.41-8.31-.36l-1.18-.5.86-3.78s1.87.38 4.59 1.65c0 0 1.95.74 4.63 2.47zm.15-1.09c.6-.59.64-1.37.14-2.36-.71-1.41-3.87-4.47-5.08-4.4-.56.08-.99.76-.27 1.33.76.59 1.56 1.96 1.29 3.29 2.27 1.06 3.92 2.15 3.92 2.15z" class="cls-6" style="fill:#ffcb05;stroke-width:0"></path>
        <path id="path45" d="M223.85 302.54s2.97 4.83 1.69 13.18c0 0-1.09.37-2.58-.77 0 0-.2 1.23-.14 2.89.06 1.67.69 4.64 4.18 4.68 3.49.04 4.55-2.59 4.59-4.77.04-2.18-.27-3.53-.27-3.53s-1.36 1.15-2.62 1.25c0 0-1.48-10.17-4.86-12.92zm-6.48-2.13s-1.75-.01-2.99-.51c0 0 2.56 2.12.59 3.96-1.97 1.85-4.11.85-4.8-.04-.84-1.09-1.35-2.99-.18-5.58l-1.59-.55s-2.11 5.83 1.74 8.07c2.87 1.67 5.33.46 7.13-1.72 0 0 2.14 0 4.24 4.76 0 0 .86-3.93-4.14-8.38z" class="cls-6" style="fill:#ffcb05;stroke-width:0"></path>
        <path id="path46" d="M212.47 299.66s1.59.99 1.63 1.56c.04.57-1.1 1.74-1.47 1.8-.37.06-1.26-.1-1.26-.1s1.68-1.65 1.1-3.26M168.19 271l2.59.98-.09-1.53-2.38.32zm41.92 18.48c-1.51.06-2.68 2.2-2.68 2.2l-8.02-3.2c-1.05-.42-2.45-.15-2.94.9-.73 1.57 1.02 2.73 1.55 2.93l16.62 6.7s3.46 1.23 4.51-1.15c1.23-2.8-6.12-8.51-9.05-8.38zm1.61 5.46c-1.71.16-1.98-2.46-.27-2.57 1.69-.16 1.97 2.46.27 2.57" class="cls-6" style="fill:#ffcb05;stroke-width:0"></path>
      </g>
    </g>
    <path id="path47" d="M180.06 205.45c-.2-.26-.38-.55-.53-.85-.05 0-.09.01-.15.01-.05 0-.09-.02-.14-.03-.15.06-.33.08-.51 0-.85-.37-1.82-1.24-2.67-.5-.74.64-1.32 1.09-2.32 1.24-1.04.15-1.95-.08-2.78-.72-.18-.14-.39-.42-.61-.52h-.13c-.33.34-.75.6-1.16.82-.67.36-1.46.74-2.24.74-.75 0-1.38-.35-1.88-.85-.11.36-.41.68-.88.75-.56.08-1.34-.13-1.88-.28-.73-.2-1.43-.52-2.09-.88-.36-.19-.35-.56-.17-.82-.35-.25-.72-.49-1.11-.67-.33-.16-.42-.23-.66 0-.19.2-.31.52-.45.75a.5.5 0 0 1-.37.26c-.01.01-.02.03-.03.05-.14.11-.39.36-.38.36-4.03 4.32-7.62 9.94-10.64 15.64-.73.83-1.36 1.7-1.7 2.66-.05-.1-.12-.19-.18-.28-.23.25-.47.49-.7.73.04.11.06.22.06.34.02.52-.13 1.35-.39 2.38-4.74 10.1-7.56 19.09-7.85 19.8h1.41-.21c.59-1.31.84-2.02 1.34-2.98-.02-.02-.02-.05-.03-.08.42.62 1.26 1.06 2.76 1.22 2.53 2.21 6.53 1.74 9.67 1.84.59-2.56 1.46-2.62 2.56-5.52-1.72 2.87-2.56 4.65-4.53 5.2-2.09-.02-6.19-.57-7.01-2.17 1.42-2.12 2.5-3.41 3.54-5.71-.87 1.44-3.08 4.53-4.77 5.45-4.09-1.18 1.65-6.5 2.45-8.68 3.57-.82 3.01 2.8 6.82 1.86 3.27.37 2.56 3.18 6.57 1.7.29-.11.64-.04.83.2.46.56.89 1.2 1.34 1.73-1.46 3.62-2.19 5.88-2.2 5.93h1.05c.72-2.15 5.56-16.12 15.06-30.26 2.4-3.57 4.99-6.89 7.98-9.81-.02-.03-.05-.05-.07-.08zm-21.27 32.87c-.63-1.11-1.28-1.92-2.63-1.48.66-2.23 1.8-3.62 2.79-5.78-1.05 1.71-3.64 6.11-5.33 6.03-.8-.94-2.12-2.07-3.52-1.88 1.45-2.26 2.33-3.35 3.32-5.54-1.09 1.79-3.99 5.98-5.62 5.49-.94-.6-1.56-1.78-2.74-1.76.71-2.09 2.17-3.08 2.81-4.95-2.7 4.21-4.84 5.56-5.85 5.2v-.01c-.12-.04-.21-.11-.31-.18-.21-.21-.32-.53-.34-.96.67-3 2.88-4.98 4.51-7.35.05-.04.09-.1.14-.14 1.44-.99.72 2.22 3.58 1.14.16-.06.36-.03.49.09 4.89 4.46 3.96.03 6.92 2.24.62.55 1.15 1.47 2.09 1.42 1.23-1 2.47-1.04 3.48.08-1.53 3.12-2.8 5.95-3.78 8.33zm4.13-9.02c-.97-.8-2.45-.96-3.44-.33.68-2.1 2.31-3.75 3.26-5.86-.9 1.48-3.15 4.3-4.25 5.63-1-1.06-2.83-2.28-4.32-1.44 1.44-2.47 2.32-3.78 3.3-5.91-1.01 1.66-3.86 5.88-5.01 5.6-.97-.75-2.65-2.58-3.72-1.38.79-1.84 2.15-2.95 3.07-4.98-1.36 1.68-2.96 4.39-3.92 4.96-.76-1.71-1.7-1.91-2.63-.44-1.09-3.3 3.74-6.22 5.47-8.7.72.53 1.5.57 2.15.27.25-.2.63-.23.87-.17 2.77.64 3.62 3.77 5.42 2.22.31-.27.24-.34.75-.28 1.65.1 4.38 5.03 5.39 1.78.53.05 1.31.49 2 .93-1.65 2.81-3.11 5.55-4.39 8.11zm9.71-16.4c-.44.61-.87 1.23-1.31 1.88-1.22 1.82-2.36 3.64-3.43 5.43-1.28-.67-2.91-1.15-3.31-.04.59-2.19 2.6-5.46 2.89-7.31-1.7 2.98-2.71 4.32-3.93 6.97-1-.88-3.53-3.09-4.74-1.72 1.08-2.54 1.65-4.12 3.05-6.51-7.29 10.98-2.86 4.35-8.6 4.54 1.3-2.15 2.88-4.58 3.72-5.74-2.18 2.04-3.95 5.46-5.13 5.73-.76-.02-1.78-.45-1.74-.97.21-2.56 5.78-7.44 8.23-9.92.48.71 1.32 1.19 2.52 1.28-1.89 1.46-4.25 2.93-2.02 4.71.09-1.01 2.51-3.71 3.9-4.29 1.04 1.36.73 4.24.29 6.11 2.26-1.31 2.88-1.04 1.92-5.8 2.7-.05 5.04-.02 7.23-.13-.05 0-.1.01-.15.02.56.86 2.06 1.26.61 5.78z" class="cls-2" style="fill:#191d5e;stroke-width:0"></path>
  </g>
</svg>